<svg width="25" height="25" viewBox="0 0 25 25" fill="none" xmlns="http://www.w3.org/2000/svg">
<g clip-path="url(#clip0_1802_2505)">
<path d="M18.5963 17.9928C16.8868 19.2958 14.8054 20.0176 12.6562 20.0528C5.65625 20.0528 1.65625 12.0528 1.65625 12.0528C2.90014 9.73465 4.62539 7.70937 6.71625 6.11276M10.5562 4.29276C11.2446 4.13164 11.9493 4.0511 12.6562 4.05276C19.6562 4.05276 23.6562 12.0528 23.6562 12.0528C23.0492 13.1884 22.3253 14.2575 21.4963 15.2428M14.7762 14.1728C14.5016 14.4675 14.1704 14.7039 13.8024 14.8679C13.4344 15.0319 13.0372 15.12 12.6343 15.1271C12.2315 15.1342 11.8314 15.0601 11.4579 14.9093C11.0843 14.7584 10.745 14.5338 10.4601 14.2489C10.1752 13.964 9.95064 13.6247 9.79976 13.2511C9.64887 12.8776 9.57478 12.4775 9.58188 12.0747C9.58899 11.6719 9.67716 11.2746 9.84113 10.9066C10.0051 10.5386 10.2415 10.2074 10.5363 9.93276" stroke="black" stroke-width="2" stroke-linecap="round" stroke-linejoin="round"/>
<path d="M1.65625 1.05273L23.6562 23.0527" stroke="black" stroke-width="2" stroke-linecap="round" stroke-linejoin="round"/>
</g>
<defs>
<clipPath id="clip0_1802_2505">
<rect width="24" height="24" fill="white" transform="translate(0.65625 0.0527344)"/>
</clipPath>
</defs>
</svg>
